%TF.GenerationSoftware,KiCad,Pcbnew,6.0.10-86aedd382b~118~ubuntu22.04.1*%
%TF.CreationDate,2023-01-26T20:13:08+01:00*%
%TF.ProjectId,polykit-x-voice-card,706f6c79-6b69-4742-9d78-2d766f696365,v1.0.0*%
%TF.SameCoordinates,Original*%
%TF.FileFunction,Legend,Bot*%
%TF.FilePolarity,Positive*%
%FSLAX46Y46*%
G04 Gerber Fmt 4.6, Leading zero omitted, Abs format (unit mm)*
G04 Created by KiCad (PCBNEW 6.0.10-86aedd382b~118~ubuntu22.04.1) date 2023-01-26 20:13:08*
%MOMM*%
%LPD*%
G01*
G04 APERTURE LIST*
%ADD10C,0.150000*%
%ADD11C,0.250000*%
G04 APERTURE END LIST*
D10*
X228695238Y-129311904D02*
X228695238Y-129883333D01*
X228733333Y-129997619D01*
X228809523Y-130073809D01*
X228923809Y-130111904D01*
X229000000Y-130111904D01*
X227933333Y-130111904D02*
X228314285Y-130111904D01*
X228314285Y-129311904D01*
X227209523Y-130035714D02*
X227247619Y-130073809D01*
X227361904Y-130111904D01*
X227438095Y-130111904D01*
X227552380Y-130073809D01*
X227628571Y-129997619D01*
X227666666Y-129921428D01*
X227704761Y-129769047D01*
X227704761Y-129654761D01*
X227666666Y-129502380D01*
X227628571Y-129426190D01*
X227552380Y-129350000D01*
X227438095Y-129311904D01*
X227361904Y-129311904D01*
X227247619Y-129350000D01*
X227209523Y-129388095D01*
X226638095Y-129311904D02*
X226638095Y-129883333D01*
X226676190Y-129997619D01*
X226752380Y-130073809D01*
X226866666Y-130111904D01*
X226942857Y-130111904D01*
X225876190Y-130111904D02*
X226257142Y-130111904D01*
X226257142Y-129311904D01*
X225152380Y-130035714D02*
X225190476Y-130073809D01*
X225304761Y-130111904D01*
X225380952Y-130111904D01*
X225495238Y-130073809D01*
X225571428Y-129997619D01*
X225609523Y-129921428D01*
X225647619Y-129769047D01*
X225647619Y-129654761D01*
X225609523Y-129502380D01*
X225571428Y-129426190D01*
X225495238Y-129350000D01*
X225380952Y-129311904D01*
X225304761Y-129311904D01*
X225190476Y-129350000D01*
X225152380Y-129388095D01*
X224580952Y-129311904D02*
X224580952Y-129883333D01*
X224619047Y-129997619D01*
X224695238Y-130073809D01*
X224809523Y-130111904D01*
X224885714Y-130111904D01*
X223819047Y-130111904D02*
X224200000Y-130111904D01*
X224200000Y-129311904D01*
X223095238Y-130035714D02*
X223133333Y-130073809D01*
X223247619Y-130111904D01*
X223323809Y-130111904D01*
X223438095Y-130073809D01*
X223514285Y-129997619D01*
X223552380Y-129921428D01*
X223590476Y-129769047D01*
X223590476Y-129654761D01*
X223552380Y-129502380D01*
X223514285Y-129426190D01*
X223438095Y-129350000D01*
X223323809Y-129311904D01*
X223247619Y-129311904D01*
X223133333Y-129350000D01*
X223095238Y-129388095D01*
X222523809Y-129311904D02*
X222523809Y-129883333D01*
X222561904Y-129997619D01*
X222638095Y-130073809D01*
X222752380Y-130111904D01*
X222828571Y-130111904D01*
X221761904Y-130111904D02*
X222142857Y-130111904D01*
X222142857Y-129311904D01*
X221038095Y-130035714D02*
X221076190Y-130073809D01*
X221190476Y-130111904D01*
X221266666Y-130111904D01*
X221380952Y-130073809D01*
X221457142Y-129997619D01*
X221495238Y-129921428D01*
X221533333Y-129769047D01*
X221533333Y-129654761D01*
X221495238Y-129502380D01*
X221457142Y-129426190D01*
X221380952Y-129350000D01*
X221266666Y-129311904D01*
X221190476Y-129311904D01*
X221076190Y-129350000D01*
X221038095Y-129388095D01*
D11*
X166750000Y-37471071D02*
X166750000Y-35971071D01*
X166178571Y-35971071D01*
X166035714Y-36042500D01*
X165964285Y-36113928D01*
X165892857Y-36256785D01*
X165892857Y-36471071D01*
X165964285Y-36613928D01*
X166035714Y-36685357D01*
X166178571Y-36756785D01*
X166750000Y-36756785D01*
X165035714Y-37471071D02*
X165178571Y-37399642D01*
X165250000Y-37328214D01*
X165321428Y-37185357D01*
X165321428Y-36756785D01*
X165250000Y-36613928D01*
X165178571Y-36542500D01*
X165035714Y-36471071D01*
X164821428Y-36471071D01*
X164678571Y-36542500D01*
X164607142Y-36613928D01*
X164535714Y-36756785D01*
X164535714Y-37185357D01*
X164607142Y-37328214D01*
X164678571Y-37399642D01*
X164821428Y-37471071D01*
X165035714Y-37471071D01*
X163678571Y-37471071D02*
X163821428Y-37399642D01*
X163892857Y-37256785D01*
X163892857Y-35971071D01*
X163250000Y-36471071D02*
X162892857Y-37471071D01*
X162535714Y-36471071D02*
X162892857Y-37471071D01*
X163035714Y-37828214D01*
X163107142Y-37899642D01*
X163250000Y-37971071D01*
X161964285Y-37471071D02*
X161964285Y-35971071D01*
X161821428Y-36899642D02*
X161392857Y-37471071D01*
X161392857Y-36471071D02*
X161964285Y-37042500D01*
X160750000Y-37471071D02*
X160750000Y-36471071D01*
X160750000Y-35971071D02*
X160821428Y-36042500D01*
X160750000Y-36113928D01*
X160678571Y-36042500D01*
X160750000Y-35971071D01*
X160750000Y-36113928D01*
X160250000Y-36471071D02*
X159678571Y-36471071D01*
X160035714Y-35971071D02*
X160035714Y-37256785D01*
X159964285Y-37399642D01*
X159821428Y-37471071D01*
X159678571Y-37471071D01*
X159178571Y-36899642D02*
X158035714Y-36899642D01*
X157464285Y-35971071D02*
X156464285Y-37471071D01*
X156464285Y-35971071D02*
X157464285Y-37471071D01*
X154964285Y-35971071D02*
X154464285Y-37471071D01*
X153964285Y-35971071D01*
X153250000Y-37471071D02*
X153392857Y-37399642D01*
X153464285Y-37328214D01*
X153535714Y-37185357D01*
X153535714Y-36756785D01*
X153464285Y-36613928D01*
X153392857Y-36542500D01*
X153250000Y-36471071D01*
X153035714Y-36471071D01*
X152892857Y-36542500D01*
X152821428Y-36613928D01*
X152750000Y-36756785D01*
X152750000Y-37185357D01*
X152821428Y-37328214D01*
X152892857Y-37399642D01*
X153035714Y-37471071D01*
X153250000Y-37471071D01*
X152107142Y-37471071D02*
X152107142Y-36471071D01*
X152107142Y-35971071D02*
X152178571Y-36042500D01*
X152107142Y-36113928D01*
X152035714Y-36042500D01*
X152107142Y-35971071D01*
X152107142Y-36113928D01*
X150750000Y-37399642D02*
X150892857Y-37471071D01*
X151178571Y-37471071D01*
X151321428Y-37399642D01*
X151392857Y-37328214D01*
X151464285Y-37185357D01*
X151464285Y-36756785D01*
X151392857Y-36613928D01*
X151321428Y-36542500D01*
X151178571Y-36471071D01*
X150892857Y-36471071D01*
X150750000Y-36542500D01*
X149535714Y-37399642D02*
X149678571Y-37471071D01*
X149964285Y-37471071D01*
X150107142Y-37399642D01*
X150178571Y-37256785D01*
X150178571Y-36685357D01*
X150107142Y-36542500D01*
X149964285Y-36471071D01*
X149678571Y-36471071D01*
X149535714Y-36542500D01*
X149464285Y-36685357D01*
X149464285Y-36828214D01*
X150178571Y-36971071D01*
X146821428Y-37328214D02*
X146892857Y-37399642D01*
X147107142Y-37471071D01*
X147250000Y-37471071D01*
X147464285Y-37399642D01*
X147607142Y-37256785D01*
X147678571Y-37113928D01*
X147750000Y-36828214D01*
X147750000Y-36613928D01*
X147678571Y-36328214D01*
X147607142Y-36185357D01*
X147464285Y-36042500D01*
X147250000Y-35971071D01*
X147107142Y-35971071D01*
X146892857Y-36042500D01*
X146821428Y-36113928D01*
X145535714Y-37471071D02*
X145535714Y-36685357D01*
X145607142Y-36542500D01*
X145750000Y-36471071D01*
X146035714Y-36471071D01*
X146178571Y-36542500D01*
X145535714Y-37399642D02*
X145678571Y-37471071D01*
X146035714Y-37471071D01*
X146178571Y-37399642D01*
X146250000Y-37256785D01*
X146250000Y-37113928D01*
X146178571Y-36971071D01*
X146035714Y-36899642D01*
X145678571Y-36899642D01*
X145535714Y-36828214D01*
X144821428Y-37471071D02*
X144821428Y-36471071D01*
X144821428Y-36756785D02*
X144750000Y-36613928D01*
X144678571Y-36542500D01*
X144535714Y-36471071D01*
X144392857Y-36471071D01*
X143250000Y-37471071D02*
X143250000Y-35971071D01*
X143250000Y-37399642D02*
X143392857Y-37471071D01*
X143678571Y-37471071D01*
X143821428Y-37399642D01*
X143892857Y-37328214D01*
X143964285Y-37185357D01*
X143964285Y-36756785D01*
X143892857Y-36613928D01*
X143821428Y-36542500D01*
X143678571Y-36471071D01*
X143392857Y-36471071D01*
X143250000Y-36542500D01*
X141535714Y-36471071D02*
X141178571Y-37471071D01*
X140821428Y-36471071D01*
X139464285Y-37471071D02*
X140321428Y-37471071D01*
X139892857Y-37471071D02*
X139892857Y-35971071D01*
X140035714Y-36185357D01*
X140178571Y-36328214D01*
X140321428Y-36399642D01*
X138821428Y-37328214D02*
X138750000Y-37399642D01*
X138821428Y-37471071D01*
X138892857Y-37399642D01*
X138821428Y-37328214D01*
X138821428Y-37471071D01*
X137821428Y-35971071D02*
X137678571Y-35971071D01*
X137535714Y-36042500D01*
X137464285Y-36113928D01*
X137392857Y-36256785D01*
X137321428Y-36542500D01*
X137321428Y-36899642D01*
X137392857Y-37185357D01*
X137464285Y-37328214D01*
X137535714Y-37399642D01*
X137678571Y-37471071D01*
X137821428Y-37471071D01*
X137964285Y-37399642D01*
X138035714Y-37328214D01*
X138107142Y-37185357D01*
X138178571Y-36899642D01*
X138178571Y-36542500D01*
X138107142Y-36256785D01*
X138035714Y-36113928D01*
X137964285Y-36042500D01*
X137821428Y-35971071D01*
X136678571Y-37328214D02*
X136607142Y-37399642D01*
X136678571Y-37471071D01*
X136750000Y-37399642D01*
X136678571Y-37328214D01*
X136678571Y-37471071D01*
X135678571Y-35971071D02*
X135535714Y-35971071D01*
X135392857Y-36042500D01*
X135321428Y-36113928D01*
X135250000Y-36256785D01*
X135178571Y-36542500D01*
X135178571Y-36899642D01*
X135250000Y-37185357D01*
X135321428Y-37328214D01*
X135392857Y-37399642D01*
X135535714Y-37471071D01*
X135678571Y-37471071D01*
X135821428Y-37399642D01*
X135892857Y-37328214D01*
X135964285Y-37185357D01*
X136035714Y-36899642D01*
X136035714Y-36542500D01*
X135964285Y-36256785D01*
X135892857Y-36113928D01*
X135821428Y-36042500D01*
X135678571Y-35971071D01*
X173142857Y-38386071D02*
X173142857Y-39457500D01*
X173214285Y-39671785D01*
X173357142Y-39814642D01*
X173571428Y-39886071D01*
X173714285Y-39886071D01*
X171785714Y-39886071D02*
X171785714Y-39100357D01*
X171857142Y-38957500D01*
X172000000Y-38886071D01*
X172285714Y-38886071D01*
X172428571Y-38957500D01*
X171785714Y-39814642D02*
X171928571Y-39886071D01*
X172285714Y-39886071D01*
X172428571Y-39814642D01*
X172500000Y-39671785D01*
X172500000Y-39528928D01*
X172428571Y-39386071D01*
X172285714Y-39314642D01*
X171928571Y-39314642D01*
X171785714Y-39243214D01*
X171071428Y-38886071D02*
X171071428Y-39886071D01*
X171071428Y-39028928D02*
X171000000Y-38957500D01*
X170857142Y-38886071D01*
X170642857Y-38886071D01*
X170500000Y-38957500D01*
X170428571Y-39100357D01*
X170428571Y-39886071D01*
X168571428Y-39886071D02*
X168571428Y-38386071D01*
X167714285Y-39886071D02*
X168357142Y-39028928D01*
X167714285Y-38386071D02*
X168571428Y-39243214D01*
X167071428Y-38886071D02*
X167071428Y-39886071D01*
X167071428Y-39028928D02*
X167000000Y-38957500D01*
X166857142Y-38886071D01*
X166642857Y-38886071D01*
X166500000Y-38957500D01*
X166428571Y-39100357D01*
X166428571Y-39886071D01*
X165714285Y-39886071D02*
X165714285Y-38886071D01*
X165714285Y-38386071D02*
X165785714Y-38457500D01*
X165714285Y-38528928D01*
X165642857Y-38457500D01*
X165714285Y-38386071D01*
X165714285Y-38528928D01*
X165000000Y-38886071D02*
X165000000Y-40386071D01*
X165000000Y-38957500D02*
X164857142Y-38886071D01*
X164571428Y-38886071D01*
X164428571Y-38957500D01*
X164357142Y-39028928D01*
X164285714Y-39171785D01*
X164285714Y-39600357D01*
X164357142Y-39743214D01*
X164428571Y-39814642D01*
X164571428Y-39886071D01*
X164857142Y-39886071D01*
X165000000Y-39814642D01*
X163642857Y-38886071D02*
X163642857Y-40386071D01*
X163642857Y-38957500D02*
X163500000Y-38886071D01*
X163214285Y-38886071D01*
X163071428Y-38957500D01*
X163000000Y-39028928D01*
X162928571Y-39171785D01*
X162928571Y-39600357D01*
X163000000Y-39743214D01*
X163071428Y-39814642D01*
X163214285Y-39886071D01*
X163500000Y-39886071D01*
X163642857Y-39814642D01*
X161714285Y-39814642D02*
X161857142Y-39886071D01*
X162142857Y-39886071D01*
X162285714Y-39814642D01*
X162357142Y-39671785D01*
X162357142Y-39100357D01*
X162285714Y-38957500D01*
X162142857Y-38886071D01*
X161857142Y-38886071D01*
X161714285Y-38957500D01*
X161642857Y-39100357D01*
X161642857Y-39243214D01*
X162357142Y-39386071D01*
X161000000Y-39886071D02*
X161000000Y-38886071D01*
X161000000Y-39171785D02*
X160928571Y-39028928D01*
X160857142Y-38957500D01*
X160714285Y-38886071D01*
X160571428Y-38886071D01*
X159000000Y-38528928D02*
X158928571Y-38457500D01*
X158785714Y-38386071D01*
X158428571Y-38386071D01*
X158285714Y-38457500D01*
X158214285Y-38528928D01*
X158142857Y-38671785D01*
X158142857Y-38814642D01*
X158214285Y-39028928D01*
X159071428Y-39886071D01*
X158142857Y-39886071D01*
X157214285Y-38386071D02*
X157071428Y-38386071D01*
X156928571Y-38457500D01*
X156857142Y-38528928D01*
X156785714Y-38671785D01*
X156714285Y-38957500D01*
X156714285Y-39314642D01*
X156785714Y-39600357D01*
X156857142Y-39743214D01*
X156928571Y-39814642D01*
X157071428Y-39886071D01*
X157214285Y-39886071D01*
X157357142Y-39814642D01*
X157428571Y-39743214D01*
X157500000Y-39600357D01*
X157571428Y-39314642D01*
X157571428Y-38957500D01*
X157500000Y-38671785D01*
X157428571Y-38528928D01*
X157357142Y-38457500D01*
X157214285Y-38386071D01*
X156142857Y-38528928D02*
X156071428Y-38457500D01*
X155928571Y-38386071D01*
X155571428Y-38386071D01*
X155428571Y-38457500D01*
X155357142Y-38528928D01*
X155285714Y-38671785D01*
X155285714Y-38814642D01*
X155357142Y-39028928D01*
X156214285Y-39886071D01*
X155285714Y-39886071D01*
X154785714Y-38386071D02*
X153857142Y-38386071D01*
X154357142Y-38957500D01*
X154142857Y-38957500D01*
X154000000Y-39028928D01*
X153928571Y-39100357D01*
X153857142Y-39243214D01*
X153857142Y-39600357D01*
X153928571Y-39743214D01*
X154000000Y-39814642D01*
X154142857Y-39886071D01*
X154571428Y-39886071D01*
X154714285Y-39814642D01*
X154785714Y-39743214D01*
X152071428Y-39314642D02*
X150928571Y-39314642D01*
X148428571Y-38886071D02*
X148428571Y-40100357D01*
X148500000Y-40243214D01*
X148571428Y-40314642D01*
X148714285Y-40386071D01*
X148928571Y-40386071D01*
X149071428Y-40314642D01*
X148428571Y-39814642D02*
X148571428Y-39886071D01*
X148857142Y-39886071D01*
X149000000Y-39814642D01*
X149071428Y-39743214D01*
X149142857Y-39600357D01*
X149142857Y-39171785D01*
X149071428Y-39028928D01*
X149000000Y-38957500D01*
X148857142Y-38886071D01*
X148571428Y-38886071D01*
X148428571Y-38957500D01*
X147714285Y-39886071D02*
X147714285Y-38886071D01*
X147714285Y-38386071D02*
X147785714Y-38457500D01*
X147714285Y-38528928D01*
X147642857Y-38457500D01*
X147714285Y-38386071D01*
X147714285Y-38528928D01*
X147214285Y-38886071D02*
X146642857Y-38886071D01*
X147000000Y-38386071D02*
X147000000Y-39671785D01*
X146928571Y-39814642D01*
X146785714Y-39886071D01*
X146642857Y-39886071D01*
X146142857Y-39886071D02*
X146142857Y-38386071D01*
X145500000Y-39886071D02*
X145500000Y-39100357D01*
X145571428Y-38957500D01*
X145714285Y-38886071D01*
X145928571Y-38886071D01*
X146071428Y-38957500D01*
X146142857Y-39028928D01*
X144142857Y-38886071D02*
X144142857Y-39886071D01*
X144785714Y-38886071D02*
X144785714Y-39671785D01*
X144714285Y-39814642D01*
X144571428Y-39886071D01*
X144357142Y-39886071D01*
X144214285Y-39814642D01*
X144142857Y-39743214D01*
X143428571Y-39886071D02*
X143428571Y-38386071D01*
X143428571Y-38957500D02*
X143285714Y-38886071D01*
X143000000Y-38886071D01*
X142857142Y-38957500D01*
X142785714Y-39028928D01*
X142714285Y-39171785D01*
X142714285Y-39600357D01*
X142785714Y-39743214D01*
X142857142Y-39814642D01*
X143000000Y-39886071D01*
X143285714Y-39886071D01*
X143428571Y-39814642D01*
X142071428Y-39743214D02*
X142000000Y-39814642D01*
X142071428Y-39886071D01*
X142142857Y-39814642D01*
X142071428Y-39743214D01*
X142071428Y-39886071D01*
X140714285Y-39814642D02*
X140857142Y-39886071D01*
X141142857Y-39886071D01*
X141285714Y-39814642D01*
X141357142Y-39743214D01*
X141428571Y-39600357D01*
X141428571Y-39171785D01*
X141357142Y-39028928D01*
X141285714Y-38957500D01*
X141142857Y-38886071D01*
X140857142Y-38886071D01*
X140714285Y-38957500D01*
X139857142Y-39886071D02*
X140000000Y-39814642D01*
X140071428Y-39743214D01*
X140142857Y-39600357D01*
X140142857Y-39171785D01*
X140071428Y-39028928D01*
X140000000Y-38957500D01*
X139857142Y-38886071D01*
X139642857Y-38886071D01*
X139500000Y-38957500D01*
X139428571Y-39028928D01*
X139357142Y-39171785D01*
X139357142Y-39600357D01*
X139428571Y-39743214D01*
X139500000Y-39814642D01*
X139642857Y-39886071D01*
X139857142Y-39886071D01*
X138714285Y-39886071D02*
X138714285Y-38886071D01*
X138714285Y-39028928D02*
X138642857Y-38957500D01*
X138500000Y-38886071D01*
X138285714Y-38886071D01*
X138142857Y-38957500D01*
X138071428Y-39100357D01*
X138071428Y-39886071D01*
X138071428Y-39100357D02*
X138000000Y-38957500D01*
X137857142Y-38886071D01*
X137642857Y-38886071D01*
X137500000Y-38957500D01*
X137428571Y-39100357D01*
X137428571Y-39886071D01*
X135642857Y-38314642D02*
X136928571Y-40243214D01*
X135142857Y-38886071D02*
X135142857Y-40386071D01*
X135142857Y-38957500D02*
X135000000Y-38886071D01*
X134714285Y-38886071D01*
X134571428Y-38957500D01*
X134500000Y-39028928D01*
X134428571Y-39171785D01*
X134428571Y-39600357D01*
X134500000Y-39743214D01*
X134571428Y-39814642D01*
X134714285Y-39886071D01*
X135000000Y-39886071D01*
X135142857Y-39814642D01*
X133571428Y-39886071D02*
X133714285Y-39814642D01*
X133785714Y-39743214D01*
X133857142Y-39600357D01*
X133857142Y-39171785D01*
X133785714Y-39028928D01*
X133714285Y-38957500D01*
X133571428Y-38886071D01*
X133357142Y-38886071D01*
X133214285Y-38957500D01*
X133142857Y-39028928D01*
X133071428Y-39171785D01*
X133071428Y-39600357D01*
X133142857Y-39743214D01*
X133214285Y-39814642D01*
X133357142Y-39886071D01*
X133571428Y-39886071D01*
X132214285Y-39886071D02*
X132357142Y-39814642D01*
X132428571Y-39671785D01*
X132428571Y-38386071D01*
X131785714Y-38886071D02*
X131428571Y-39886071D01*
X131071428Y-38886071D02*
X131428571Y-39886071D01*
X131571428Y-40243214D01*
X131642857Y-40314642D01*
X131785714Y-40386071D01*
X130500000Y-39886071D02*
X130500000Y-38386071D01*
X130357142Y-39314642D02*
X129928571Y-39886071D01*
X129928571Y-38886071D02*
X130500000Y-39457500D01*
X129285714Y-39886071D02*
X129285714Y-38886071D01*
X129285714Y-38386071D02*
X129357142Y-38457500D01*
X129285714Y-38528928D01*
X129214285Y-38457500D01*
X129285714Y-38386071D01*
X129285714Y-38528928D01*
X128785714Y-38886071D02*
X128214285Y-38886071D01*
X128571428Y-38386071D02*
X128571428Y-39671785D01*
X128500000Y-39814642D01*
X128357142Y-39886071D01*
X128214285Y-39886071D01*
M02*
