M48
; DRILL file {KiCad 6.0.5-a6ca702e91~116~ubuntu21.10.1} date So 19 Jun 2022 21:12:14 CEST
; FORMAT={-:-/ absolute / inch / decimal}
; #@! TF.CreationDate,2022-06-19T21:12:14+02:00
; #@! TF.GenerationSoftware,Kicad,Pcbnew,6.0.5-a6ca702e91~116~ubuntu21.10.1
; #@! TF.FileFunction,Plated,1,2,PTH
FMAT,2
INCH
; #@! TA.AperFunction,Plated,PTH,ViaDrill
T1C0.0118
; #@! TA.AperFunction,Plated,PTH,ComponentDrill
T2C0.0315
; #@! TA.AperFunction,Plated,PTH,ComponentDrill
T3C0.0354
; #@! TA.AperFunction,Plated,PTH,ComponentDrill
T4C0.0394
; #@! TA.AperFunction,Plated,PTH,ViaDrill
T5C0.1260
%
G90
G05
T1
X2.838Y-3.6024
X3.0512Y-4.065
X3.2283Y-2.5984
X3.3661Y-4.1831
X4.8984Y-3.3827
X4.9263Y-3.4154
X4.9541Y-3.4514
X5.0098Y-3.3268
X5.3278Y-3.875
X6.3838Y-3.9115
X8.189Y-2.3622
X8.2776Y-3.2382
X8.3071Y-3.9567
X8.3957Y-2.9331
T2
X2.3638Y-3.9567
X2.3638Y-4.0846
X2.3657Y-2.4291
X2.3657Y-2.5551
X2.3669Y-2.6821
X2.3669Y-2.81
X2.3669Y-2.938
X2.3669Y-3.0659
X2.3669Y-3.1939
X2.3669Y-3.3219
X2.3669Y-3.4498
X2.3669Y-3.5728
X2.3669Y-4.2126
X2.3669Y-4.3406
X2.3689Y-2.0472
X2.3689Y-2.1752
X2.3689Y-2.3031
X2.3689Y-4.4734
X2.3689Y-4.6014
X2.3701Y-3.7008
X2.3701Y-3.8287
X2.372Y-1.9193
X2.7638Y-3.9567
X2.7638Y-4.0846
X2.7657Y-2.4291
X2.7657Y-2.5551
X2.7669Y-2.6821
X2.7669Y-2.81
X2.7669Y-2.938
X2.7669Y-3.0659
X2.7669Y-3.1939
X2.7669Y-3.3219
X2.7669Y-3.4498
X2.7669Y-3.5728
X2.7669Y-4.2126
X2.7669Y-4.3406
X2.7689Y-2.0472
X2.7689Y-2.1752
X2.7689Y-2.3031
X2.7689Y-4.4734
X2.7689Y-4.6014
X2.7701Y-3.7008
X2.7701Y-3.8287
X2.772Y-1.9193
X2.9626Y-4.1437
X2.9626Y-4.2437
X2.9626Y-4.3437
X2.9626Y-4.4437
X2.9626Y-4.5437
X2.9626Y-4.6437
X2.9626Y-4.7437
X2.9685Y-2.9616
X2.9685Y-3.0616
X2.9685Y-3.1616
X2.9685Y-3.2616
X2.9685Y-3.3616
X2.9685Y-3.4616
X2.9685Y-3.5616
X2.9685Y-3.6616
X2.9705Y-1.875
X2.9705Y-1.975
X2.9705Y-2.075
X2.9705Y-2.175
X2.9705Y-2.275
X2.9705Y-2.375
X2.9705Y-2.475
X3.002Y-1.5551
X3.002Y-1.6535
X3.0118Y-4.9902
X3.0118Y-5.0886
X3.061Y-3.8976
X3.0807Y-2.7165
X3.1594Y-3.8976
X3.1791Y-2.7165
X3.2087Y-4.9902
X3.2087Y-5.0886
X3.2283Y-1.5551
X3.2283Y-1.6535
X3.2626Y-4.1437
X3.2626Y-4.2437
X3.2626Y-4.3437
X3.2626Y-4.4437
X3.2626Y-4.5437
X3.2626Y-4.6437
X3.2626Y-4.7437
X3.2685Y-2.9616
X3.2685Y-3.0616
X3.2685Y-3.1616
X3.2685Y-3.2616
X3.2685Y-3.3616
X3.2685Y-3.4616
X3.2685Y-3.5616
X3.2685Y-3.6616
X3.2705Y-1.875
X3.2705Y-1.975
X3.2705Y-2.075
X3.2705Y-2.175
X3.2705Y-2.275
X3.2705Y-2.375
X3.2705Y-2.475
X3.4575Y-4.4154
X3.4575Y-4.5413
X3.4583Y-4.2913
X3.4614Y-1.9291
X3.4614Y-2.372
X3.4614Y-2.5
X3.4614Y-2.628
X3.4614Y-2.7559
X3.4614Y-2.8839
X3.4614Y-3.6417
X3.4614Y-3.7697
X3.4614Y-3.8976
X3.4614Y-4.1634
X3.4626Y-3.0069
X3.4626Y-3.2628
X3.4626Y-3.3907
X3.4626Y-3.5187
X3.4646Y-3.1348
X3.8575Y-4.4154
X3.8575Y-4.5413
X3.8583Y-4.2913
X3.8614Y-1.9291
X3.8614Y-2.372
X3.8614Y-2.5
X3.8614Y-2.628
X3.8614Y-2.7559
X3.8614Y-2.8839
X3.8614Y-3.6417
X3.8614Y-3.7697
X3.8614Y-3.8976
X3.8614Y-4.1634
X3.8626Y-3.0069
X3.8626Y-3.2628
X3.8626Y-3.3907
X3.8626Y-3.5187
X3.8646Y-3.1348
X4.1061Y-4.6752
X4.1159Y-1.752
X4.1799Y-3.8386
X4.1799Y-4.2717
X4.1848Y-4.6752
X4.1947Y-1.752
X4.2126Y-3.2646
X4.2126Y-3.6646
X4.2439Y-2.9921
X4.3226Y-2.9921
X4.3406Y-2.0374
X4.3406Y-2.2244
X4.3406Y-2.4114
X4.3406Y-2.5984
X4.3406Y-3.2614
X4.3406Y-3.6614
X4.3817Y-4.6752
X4.4604Y-2.815
X4.4604Y-4.6752
X4.4685Y-3.2646
X4.4685Y-3.6646
X4.4685Y-4.0748
X4.5374Y-2.0374
X4.5374Y-2.2244
X4.5374Y-2.4114
X4.5374Y-2.5984
X4.5392Y-2.815
X4.5669Y-4.0748
X4.5799Y-3.8386
X4.5799Y-4.2717
X4.5965Y-3.2614
X4.5965Y-3.6614
X4.7539Y-4.5311
X4.7539Y-4.9311
X4.8012Y-2.0384
X4.8012Y-2.1384
X4.8012Y-2.2384
X4.8012Y-2.3384
X4.8012Y-2.4384
X4.8012Y-2.5384
X4.8012Y-2.6384
X4.8012Y-2.7384
X4.8012Y-2.8384
X4.8012Y-2.9384
X4.8012Y-3.0384
X4.8012Y-3.1384
X4.8102Y-3.775
X4.8102Y-3.875
X4.8102Y-3.975
X4.8102Y-4.075
X4.8102Y-4.175
X4.8102Y-4.275
X4.8102Y-4.375
X4.8819Y-4.5311
X4.8819Y-4.9311
X4.9803Y-1.6831
X4.9803Y-1.7815
X5.0098Y-4.5311
X5.0098Y-4.9311
X5.1012Y-2.0384
X5.1012Y-2.1384
X5.1012Y-2.2384
X5.1012Y-2.3384
X5.1012Y-2.4384
X5.1012Y-2.5384
X5.1012Y-2.6384
X5.1012Y-2.7384
X5.1012Y-2.8384
X5.1012Y-2.9384
X5.1012Y-3.0384
X5.1012Y-3.1384
X5.1102Y-3.775
X5.1102Y-3.875
X5.1102Y-3.975
X5.1102Y-4.075
X5.1102Y-4.175
X5.1102Y-4.275
X5.1102Y-4.375
X5.1772Y-1.6831
X5.1772Y-1.7815
X5.3283Y-3.0709
X5.3315Y-2.3031
X5.3315Y-2.5591
X5.3315Y-2.687
X5.3315Y-2.815
X5.3315Y-2.9429
X5.3315Y-3.1988
X5.3315Y-3.3268
X5.3346Y-2.4311
X5.4362Y-3.7697
X5.4362Y-4.3898
X5.4398Y-4.2618
X5.4559Y-4.065
X5.4939Y-1.9291
X5.5543Y-4.065
X5.5726Y-1.9291
X5.7283Y-3.0709
X5.7315Y-2.3031
X5.7315Y-2.5591
X5.7315Y-2.687
X5.7315Y-2.815
X5.7315Y-2.9429
X5.7315Y-3.1988
X5.7315Y-3.3268
X5.7346Y-2.4311
X5.8362Y-3.7697
X5.8362Y-4.3898
X5.8398Y-4.2618
X5.9693Y-3.6909
X5.9693Y-4.1142
X5.9693Y-4.2421
X5.9713Y-2.7953
X5.9713Y-3.0118
X5.9713Y-3.1398
X5.9713Y-3.2677
X6.0685Y-3.8091
X6.0697Y-2.0669
X6.0697Y-2.1949
X6.0697Y-2.3228
X6.1701Y-1.811
X6.25Y-4.7835
X6.25Y-4.8819
X6.2512Y-4.375
X6.2598Y-3.4055
X6.2701Y-1.811
X6.3496Y-4.375
X6.3583Y-2.4508
X6.3583Y-3.4055
X6.3685Y-3.8091
X6.3693Y-3.6909
X6.3693Y-4.1142
X6.3693Y-4.2421
X6.3701Y-1.811
X6.3713Y-2.7953
X6.3713Y-3.0118
X6.3713Y-3.1398
X6.3713Y-3.2677
X6.4567Y-2.4508
X6.4697Y-2.0669
X6.4697Y-2.1949
X6.4697Y-2.3228
X6.6602Y-3.7598
X6.6602Y-3.8598
X6.6602Y-3.9598
X6.6602Y-4.0598
X6.6602Y-4.1598
X6.6602Y-4.2598
X6.6602Y-4.3598
X6.6614Y-2.1437
X6.6614Y-2.2437
X6.6614Y-2.3437
X6.6614Y-2.4437
X6.6614Y-2.8002
X6.6614Y-2.9002
X6.6614Y-3.0002
X6.6614Y-3.1002
X6.6614Y-3.2002
X6.6614Y-3.3002
X6.6614Y-3.4002
X6.752Y-4.7835
X6.752Y-4.8819
X6.7618Y-1.8898
X6.8602Y-1.8898
X6.9602Y-3.7598
X6.9602Y-3.8598
X6.9602Y-3.9598
X6.9602Y-4.0598
X6.9602Y-4.1598
X6.9602Y-4.2598
X6.9602Y-4.3598
X6.9614Y-2.1437
X6.9614Y-2.2437
X6.9614Y-2.3437
X6.9614Y-2.4437
X6.9614Y-2.8002
X6.9614Y-2.9002
X6.9614Y-3.0002
X6.9614Y-3.1002
X6.9614Y-3.2002
X6.9614Y-3.3002
X6.9614Y-3.4002
X7.0079Y-4.7835
X7.0079Y-4.8819
X7.1098Y-4.0157
X7.1492Y-2.4213
X7.1524Y-2.1654
X7.1524Y-2.2933
X7.1622Y-3.8976
X7.1642Y-2.9331
X7.1642Y-3.061
X7.1642Y-3.189
X7.1642Y-3.3957
X7.1819Y-3.7598
X7.187Y-2.7953
X7.2035Y-1.811
X7.2803Y-3.7598
X7.2854Y-2.7953
X7.3035Y-1.811
X7.4035Y-1.811
X7.5098Y-4.0157
X7.5492Y-2.4213
X7.5524Y-2.1654
X7.5524Y-2.2933
X7.5622Y-3.8976
X7.5642Y-2.9331
X7.5642Y-3.061
X7.5642Y-3.189
X7.5642Y-3.3957
X7.7539Y-2.3622
X7.8425Y-2.1654
X7.8425Y-2.5591
X7.8937Y-3.7087
X7.8937Y-3.8087
X7.8937Y-3.9087
X7.8937Y-4.3976
X7.8937Y-4.4976
X7.8937Y-4.5976
X7.9409Y-2.1654
X7.9409Y-2.5591
X7.9508Y-2.3622
X8.1821Y-3.6681
X8.1821Y-4.0681
X8.1821Y-4.2142
X8.1821Y-4.6142
X8.2677Y-2.7134
X8.2677Y-3.1134
X8.2744Y-2.2126
X8.2744Y-2.5126
X8.3744Y-2.2126
X8.3744Y-2.5126
X8.376Y-1.611
X8.376Y-2.011
X8.376Y-4.3199
X8.376Y-4.5167
X8.3957Y-2.7165
X8.3957Y-3.1165
X8.4744Y-2.2126
X8.4744Y-2.5126
X8.4909Y-3.8366
X8.4909Y-4.1366
X8.5236Y-2.7165
X8.5236Y-3.1165
X8.5236Y-3.2252
X8.5236Y-3.6252
X8.5531Y-4.3069
X8.5531Y-4.7069
X8.5728Y-1.8929
X8.5728Y-1.9913
X8.5744Y-2.2126
X8.5744Y-2.5126
X8.5909Y-3.8366
X8.5909Y-4.1366
X8.6496Y-3.2252
X8.6496Y-3.6252
X8.6516Y-2.7165
X8.6516Y-3.1165
X8.6744Y-2.2126
X8.6744Y-2.5126
X8.6831Y-4.3069
X8.6831Y-4.7069
X8.6909Y-3.8366
X8.6909Y-4.1366
X8.6988Y-4.8415
X8.6988Y-4.94
X8.7106Y-1.6142
X8.7106Y-2.0142
X8.7744Y-2.2126
X8.7744Y-2.5126
X8.7795Y-2.7165
X8.7795Y-3.1165
X8.7909Y-3.8366
X8.7909Y-4.1366
X8.811Y-4.3079
X8.811Y-4.7079
X8.8366Y-1.6142
X8.8366Y-2.0142
X8.8484Y-3.5039
X8.8484Y-3.6024
X8.8744Y-2.2126
X8.8744Y-2.5126
X8.8858Y-4.8425
X8.8858Y-4.9409
X8.8909Y-3.8366
X8.8909Y-4.1366
X8.9055Y-2.7165
X8.9055Y-3.1165
X8.939Y-4.3079
X8.939Y-4.7079
X8.9665Y-1.611
X8.9665Y-2.011
X8.9744Y-2.2126
X8.9744Y-2.5126
X8.9862Y-3.222
X8.9862Y-3.622
X8.9909Y-3.8366
X8.9909Y-4.1366
X9.0354Y-2.7165
X9.0354Y-3.1165
X9.063Y-4.8425
X9.063Y-4.9409
X9.0669Y-4.311
X9.0669Y-4.711
X9.0909Y-3.8366
X9.0909Y-4.1366
X9.1106Y-1.9772
X9.1122Y-3.222
X9.1122Y-3.622
X9.1909Y-3.8366
X9.1909Y-4.1366
X9.1949Y-4.3079
X9.1949Y-4.7079
X9.2106Y-1.9772
X9.3106Y-1.9772
X9.3287Y-2.2638
X9.3287Y-2.4606
X9.3484Y-3.365
X9.3484Y-3.465
X9.3484Y-3.565
X9.437Y-3.937
X9.437Y-4.0354
T3
X9.1608Y-1.6567
X9.2608Y-1.6567
T4
X4.1516Y-5.1467
X4.2516Y-5.1467
X4.3516Y-5.1467
X4.4516Y-5.1467
X4.5516Y-5.1467
X4.6516Y-5.1467
X4.7516Y-5.1467
X4.8516Y-5.1467
X4.9516Y-5.1467
X5.0516Y-5.1467
X5.1516Y-5.1467
X5.2516Y-5.1467
X5.3516Y-5.1467
X5.4516Y-5.1467
X5.5516Y-5.1467
X5.6516Y-5.1467
X5.7516Y-5.1467
X5.8516Y-5.1467
X5.9516Y-5.1467
X6.0516Y-5.1467
X6.1516Y-5.1467
X6.2516Y-5.1467
X6.3516Y-5.1467
X6.4516Y-5.1467
X6.5516Y-5.1467
X6.6516Y-5.1467
X6.7516Y-5.1467
X6.8516Y-5.1467
X6.9516Y-5.1467
X7.0516Y-5.1467
X7.1516Y-5.1467
X7.2516Y-5.1467
X7.3516Y-5.1467
X7.4516Y-5.1467
X7.5516Y-5.1467
X7.6516Y-5.1467
T5
X2.1654Y-1.5748
X2.1654Y-5.1181
X9.6457Y-1.5748
X9.6457Y-5.1181
T0
M30
